<?xml version="1.0" encoding="UTF-8" standalone="no"?>
<!DOCTYPE svg PUBLIC "-//W3C//DTD SVG 1.1//EN"
 "http://www.w3.org/Graphics/SVG/1.1/DTD/svg11.dtd">
<!-- Generated by graphviz version 2.40.1 (20161225.0304)
 -->
<!-- Title: dependencies Pages: 1 -->
<svg width="726pt" height="211pt"
 viewBox="0.00 0.00 726.00 211.00" xmlns="http://www.w3.org/2000/svg" xmlns:xlink="http://www.w3.org/1999/xlink">
<g id="graph0" class="graph" transform="scale(1 1) rotate(0) translate(4 207)">
<title>dependencies</title>
<polygon fill="#ffffff" stroke="transparent" points="-4,4 -4,-207 722,-207 722,4 -4,4"/>
<text text-anchor="start" x="338.0091" y="-42.4" font-family="sans-serif" font-weight="bold" font-size="14.00" fill="#000000">Legend</text>
<polygon fill="#ffffb3" stroke="transparent" points="125,-10 125,-30 145,-30 145,-10 125,-10"/>
<text text-anchor="start" x="148.629" y="-15.4" font-family="sans-serif" font-size="14.00" fill="#000000"> &#160;Declarations</text>
<polygon fill="#8dd3c7" stroke="transparent" points="238,-10 238,-30 258,-30 258,-10 238,-10"/>
<text text-anchor="start" x="261.7251" y="-15.4" font-family="sans-serif" font-size="14.00" fill="#000000"> &#160;Module</text>
<polygon fill="#80b1d3" stroke="transparent" points="324,-10 324,-30 344,-30 344,-10 324,-10"/>
<text text-anchor="start" x="347.7812" y="-15.4" font-family="sans-serif" font-size="14.00" fill="#000000"> &#160;Bootstrap</text>
<polygon fill="#fdb462" stroke="transparent" points="421,-10 421,-30 441,-30 441,-10 421,-10"/>
<text text-anchor="start" x="444.6732" y="-15.4" font-family="sans-serif" font-size="14.00" fill="#000000"> &#160;Providers</text>
<polygon fill="#fb8072" stroke="transparent" points="517,-10 517,-30 537,-30 537,-10 517,-10"/>
<text text-anchor="start" x="540.7258" y="-15.4" font-family="sans-serif" font-size="14.00" fill="#000000"> &#160;Exports</text>
<g id="clust1" class="cluster">
<title>cluster_PrestationModule</title>
<polygon fill="none" stroke="#000000" stroke-dasharray="1,5" points="8,-70 8,-195 710,-195 710,-70 8,-70"/>
</g>
<g id="clust2" class="cluster">
<title>cluster_PrestationModule_declarations</title>
<polygon fill="none" stroke="#000000" points="366,-78 366,-130 702,-130 702,-78 366,-78"/>
</g>
<g id="clust5" class="cluster">
<title>cluster_PrestationModule_imports</title>
<polygon fill="none" stroke="#000000" points="16,-78 16,-130 358,-130 358,-78 16,-78"/>
</g>
<!-- ListPrestationsComponent -->
<g id="node1" class="node">
<title>ListPrestationsComponent</title>
<polygon fill="#ffffb3" stroke="#000000" points="694.0448,-122 529.9552,-122 529.9552,-86 694.0448,-86 694.0448,-122"/>
<text text-anchor="middle" x="612" y="-99.8" font-family="Times,serif" font-size="14.00" fill="#000000">ListPrestationsComponent</text>
</g>
<!-- PrestationModule -->
<g id="node3" class="node">
<title>PrestationModule</title>
<polygon fill="#8dd3c7" stroke="#000000" points="401.5395,-187 398.5395,-191 377.5395,-191 374.5395,-187 286.4605,-187 286.4605,-151 401.5395,-151 401.5395,-187"/>
<text text-anchor="middle" x="344" y="-164.8" font-family="Times,serif" font-size="14.00" fill="#000000">PrestationModule</text>
</g>
<!-- ListPrestationsComponent&#45;&gt;PrestationModule -->
<g id="edge1" class="edge">
<title>ListPrestationsComponent&#45;&gt;PrestationModule</title>
<path fill="none" stroke="#000000" d="M612,-122.1061C612,-141.3391 612,-169 612,-169 612,-169 411.8221,-169 411.8221,-169"/>
<polygon fill="#000000" stroke="#000000" points="411.8221,-165.5001 401.8221,-169 411.822,-172.5001 411.8221,-165.5001"/>
</g>
<!-- PrestationComponent -->
<g id="node2" class="node">
<title>PrestationComponent</title>
<polygon fill="#ffffb3" stroke="#000000" points="511.8216,-122 374.1784,-122 374.1784,-86 511.8216,-86 511.8216,-122"/>
<text text-anchor="middle" x="443" y="-99.8" font-family="Times,serif" font-size="14.00" fill="#000000">PrestationComponent</text>
</g>
<!-- PrestationComponent&#45;&gt;PrestationModule -->
<g id="edge2" class="edge">
<title>PrestationComponent&#45;&gt;PrestationModule</title>
<path fill="none" stroke="#000000" d="M388.0544,-122.1061C388.0544,-122.1061 388.0544,-140.991 388.0544,-140.991"/>
<polygon fill="#000000" stroke="#000000" points="384.5544,-140.9909 388.0544,-150.991 391.5544,-140.991 384.5544,-140.9909"/>
</g>
<!-- PrestationsRoutingModuleModule -->
<g id="node4" class="node">
<title>PrestationsRoutingModuleModule</title>
<polygon fill="#8dd3c7" stroke="#000000" points="349.6511,-122 346.6511,-126 325.6511,-126 322.6511,-122 140.3489,-122 140.3489,-86 349.6511,-86 349.6511,-122"/>
<text text-anchor="middle" x="245" y="-99.8" font-family="Times,serif" font-size="14.00" fill="#000000">PrestationsRoutingModuleModule</text>
</g>
<!-- PrestationsRoutingModuleModule&#45;&gt;PrestationModule -->
<g id="edge3" class="edge">
<title>PrestationsRoutingModuleModule&#45;&gt;PrestationModule</title>
<path fill="none" stroke="#000000" d="M318.0281,-122.1061C318.0281,-122.1061 318.0281,-140.991 318.0281,-140.991"/>
<polygon fill="#000000" stroke="#000000" points="314.5281,-140.9909 318.0281,-150.991 321.5281,-140.991 314.5281,-140.9909"/>
</g>
<!-- SharedModule -->
<g id="node5" class="node">
<title>SharedModule</title>
<polygon fill="#8dd3c7" stroke="#000000" points="122.4231,-122 119.4231,-126 98.4231,-126 95.4231,-122 23.5769,-122 23.5769,-86 122.4231,-86 122.4231,-122"/>
<text text-anchor="middle" x="73" y="-99.8" font-family="Times,serif" font-size="14.00" fill="#000000">SharedModule</text>
</g>
<!-- SharedModule&#45;&gt;PrestationModule -->
<g id="edge4" class="edge">
<title>SharedModule&#45;&gt;PrestationModule</title>
<path fill="none" stroke="#000000" d="M73,-122.1061C73,-141.3391 73,-169 73,-169 73,-169 276.1961,-169 276.1961,-169"/>
<polygon fill="#000000" stroke="#000000" points="276.1961,-172.5001 286.1961,-169 276.1961,-165.5001 276.1961,-172.5001"/>
</g>
</g>
</svg>
